<?xml version="1.0" encoding="utf-8"?>
<!-- Generator: Adobe Illustrator 18.1.1, SVG Export Plug-In . SVG Version: 6.00 Build 0)  -->
<!DOCTYPE svg PUBLIC "-//W3C//DTD SVG 1.1//EN" "http://www.w3.org/Graphics/SVG/1.1/DTD/svg11.dtd">
<svg version="1.1" xmlns="http://www.w3.org/2000/svg" xmlns:xlink="http://www.w3.org/1999/xlink" x="0px" y="0px"
	 viewBox="0 0 618.1 134.6" enable-background="new 0 0 618.1 134.6" xml:space="preserve">
<g id="Layer_1">
	<path id="n_1_" opacity="0.97" fill="#4D4D4E" d="M553.1,49c1.8-0.5,3.8-1.2,6-1.8c2.2-0.7,4.6-1.3,7.4-1.9
		c2.7-0.6,5.7-1.1,9.1-1.4c3.3-0.4,7.2-0.6,11.4-0.6c12.5,0,21.1,3.6,25.8,10.9c4.7,7.2,5.6,17.1,2.5,29.7l-10.9,45.3h-23.8
		l10.5-44.4c0.6-2.8,1.1-5.5,1.5-8.1c0.4-2.6,0.4-4.9-0.1-6.9c-0.4-2-1.4-3.6-2.9-4.8c-1.6-1.2-3.9-1.8-7.1-1.8
		c-3.1,0-6.2,0.3-9.4,1l-15.5,65h-23.8L553.1,49z"/>
	<path id="o_1_" opacity="0.97" fill="#4D4D4E" d="M442.9,129.2c-5.6,0-10.5-0.9-14.7-2.6c-4.1-1.7-7.6-4.1-10.3-7.2
		c-2.7-3.1-4.8-6.7-6.1-10.9c-1.4-4.2-2.1-8.9-2.1-14c0-6.4,1-12.8,3.1-19.2c2.1-6.4,5.1-12.1,9.2-17.2c4-5.1,9-9.3,14.8-12.5
		c5.8-3.2,12.6-4.9,20.1-4.9c5.5,0,10.4,0.9,14.6,2.6c4.2,1.7,7.6,4.1,10.4,7.2c2.7,3.1,4.8,6.7,6.1,10.9c1.4,4.2,2.1,8.9,2.1,14
		c0,6.4-1,12.8-3,19.2c-2,6.4-5,12.1-8.9,17.2c-3.9,5.1-8.9,9.3-14.8,12.5C457.6,127.6,450.7,129.2,442.9,129.2z M454.8,60.9
		c-3.5,0-6.6,1-9.3,3c-2.7,2-4.9,4.6-6.7,7.7c-1.8,3.1-3.2,6.5-4.1,10.1c-0.9,3.7-1.3,7.2-1.3,10.5c0,5.3,0.9,9.5,2.5,12.5
		c1.7,3,4.8,4.5,9.3,4.5c3.5,0,6.6-1,9.3-3c2.6-2,4.9-4.6,6.7-7.7c1.8-3.1,3.2-6.5,4.1-10.1c0.9-3.7,1.3-7.2,1.3-10.5
		c0-5.3-0.9-9.5-2.6-12.5C462.3,62.4,459.2,60.9,454.8,60.9z"/>
	<path id="c_1_" opacity="0.97" fill="#4D4D4E" d="M338,93.5c0-7.2,1.2-14.1,3.5-20.4c2.3-6.4,5.7-12,10.1-16.8
		c4.4-4.8,9.7-8.6,15.9-11.3c6.2-2.8,13.2-4.2,20.8-4.2c4.8,0,9.1,0.5,12.8,1.4c3.8,0.9,7.2,2.1,10.3,3.6l-4.9,20.5
		c-4.8-2.8-7.6-3.5-9.9-4.2c-2.3-0.7-5.1-1-8.4-1c-7.9,0-14.1,2.7-18.8,8.1c-4.6,5.4-7,12.7-7,21.9c0,5.4,1.2,9.8,3.5,13.2
		c2.3,3.4,6.7,5,12.9,5c3.1,0,6.1-0.3,8.9-1c2.9-0.6,6.9-2.1,9.3-3.3l0.1,19.9c-3,1.2-6.3,2.2-9.9,3.1c-3.6,0.9-7.9,1.3-12.9,1.3
		c-6.6,0-12.2-1-16.8-2.9c-4.6-1.9-8.4-4.5-11.3-7.7c-3-3.3-5.1-7.1-6.5-11.4C338.7,102.8,338,98.3,338,93.5z"/>
	<path id="i_3_" opacity="0.97" fill="#4D4D4E" d="M252.4,129.2h-23.6l20-84h23.8L252.4,129.2z M264.1,32.8c-2.8,0-5.3-0.8-7.5-2.5
		c-2.3-1.6-3.4-4.2-3.4-7.6c0-1.9,0.4-3.6,1.1-5.3c0.8-1.7,1.8-3.1,3-4.3c1.3-1.2,2.7-2.2,4.4-2.9c1.7-0.7,3.4-1.1,5.3-1.1
		c2.8,0,5.3,0.8,7.5,2.5c2.2,1.7,3.4,4.2,3.4,7.6c0,1.9-0.4,3.7-1.1,5.3c-0.8,1.7-1.8,3.1-3,4.3c-1.2,1.2-2.7,2.2-4.4,2.9
		C267.8,32.5,266,32.8,264.1,32.8z"/>
	<path id="i_1_" opacity="0.97" fill="#4D4D4E" d="M517.2,129.2h-23.6l20-84h23.8L517.2,129.2z M528.9,32.8c-2.8,0-5.3-0.8-7.5-2.5
		c-2.3-1.6-3.4-4.2-3.4-7.6c0-1.9,0.4-3.6,1.1-5.3c0.8-1.7,1.8-3.1,3-4.3c1.3-1.2,2.7-2.2,4.4-2.9c1.7-0.7,3.4-1.1,5.3-1.1
		c2.8,0,5.3,0.8,7.5,2.5c2.2,1.7,3.4,4.2,3.4,7.6c0,1.9-0.4,3.7-1.1,5.3c-0.8,1.7-1.8,3.1-3,4.3c-1.2,1.2-2.7,2.2-4.4,2.9
		C532.6,32.5,530.8,32.8,528.9,32.8z"/>
	<path id="b_1_" opacity="0.97" fill="#4D4D4E" d="M197.7,41.3c5.1,0,9.5,0.9,13.2,2.7c3.7,1.8,6.8,4.3,9.3,7.3
		c2.4,3.1,4.3,6.7,5.4,10.9c1.2,4.2,1.7,8.6,1.7,13.4c0,7.3-1.3,14.3-4.1,20.8c-2.7,6.6-6.4,12.2-11.1,17.1
		c-4.7,4.8-10.2,8.7-16.6,11.5c-6.4,2.8-13.3,4.2-20.7,4.2c-1,0-2.7,0-5-0.1c-2.4-0.1-5.1-0.3-8.2-0.7c-3.1-0.4-6.4-1.1-9.8-1.9
		c-3.5-0.8-6.7-2-9.8-3.5L169.6,6.9l24.7-3.8l-9.9,41.2c2.1-1,4.2-1.7,6.4-2.2C192.9,41.5,195.2,41.3,197.7,41.3z M176.9,109.6
		c3.7,0,7.2-0.9,10.5-2.7c3.3-1.8,6.2-4.2,8.6-7.3c2.4-3,4.3-6.5,5.7-10.3s2.1-7.8,2.1-12c0-5.1-0.9-9.1-2.6-12
		c-1.7-2.9-4.9-4.3-9.4-4.3c-1.5,0-3.4,0.3-5.8,0.8c-2.4,0.5-4.5,1.7-6.5,3.4L168.9,109c0.6,0.1,1.2,0.2,1.7,0.3
		c0.5,0.1,1,0.2,1.5,0.2c0.5,0.1,1.2,0.1,1.9,0.1S175.7,109.6,176.9,109.6z"/>
	<g id="Bitcoin_Logo_2_">
		
			<linearGradient id="PMS_130_Coin_2_" gradientUnits="userSpaceOnUse" x1="-1.129220e-07" y1="65.8547" x2="131.8007" y2="65.8547">
			<stop  offset="0" style="stop-color:#F8A847"/>
			<stop  offset="1" style="stop-color:#F7961F"/>
		</linearGradient>
		<path id="PMS_130_Coin_1_" fill="url(#PMS_130_Coin_2_)" d="M129.8,81.7c-8.8,35.3-44.5,56.8-79.9,48C14.7,120.9-6.8,85.2,2,50
			S46.5-6.8,81.7,2C117.1,10.7,138.6,46.5,129.8,81.7z"/>
		<path id="Bitcoin_Symbol_1_" fill="#FFFFFF" d="M97.1,57.3c1.2-8.8-5.5-13.4-14.7-16.5l2.8-11.9l-7.2-1.7l-2.7,11.6
			c-1.9-0.5-3.8-0.9-5.8-1.3l2.7-11.6L65,24.1L62.1,36c-1.6-0.4-3.1-0.6-4.7-1l0,0l-10-2.4l-1.8,7.7c0,0,5.4,1.2,5.2,1.3
			c2.9,0.7,3.5,2.7,3.4,4.1l-3.2,13.6c0.2,0.1,0.5,0.1,0.7,0.3c-0.3-0.1-0.5-0.1-0.7-0.2l-4.4,19c-0.4,0.9-1.3,2.2-3.3,1.7
			c0.1,0.1-5.3-1.3-5.3-1.3l-3.5,8.3l9.4,2.2c1.7,0.5,3.5,0.8,5.1,1.3l-2.8,12l7.2,1.7l2.8-11.9c2,0.5,3.9,1,5.8,1.5l-2.8,11.8
			l7.2,1.7l2.8-12c12.4,2.2,21.6,1.2,25.4-10.1c3-9-0.3-14.1-6.9-17.5C92.7,66.8,96.2,63.7,97.1,57.3z M80.8,80.6
			c-2.1,9-17.3,4.3-22.2,3.1l3.8-15.9C67.4,69,83,71.2,80.8,80.6z M82.8,57.3c-1.9,8.2-14.6,4.2-18.7,3.2L67.6,46
			C71.7,47,84.9,48.8,82.8,57.3z"/>
	</g>
	<path opacity="0.97" fill="#4D4D4E" d="M318.7,127.2l4.9-20.1c-1.7,0.5-3.4,1-5.1,1.3c-2.4,0.5-4.9,0.7-7.4,0.7
		c-3.1,0-5.5-0.4-7.1-1.3c-1.7-0.8-2.8-2-3.4-3.6c-0.6-1.5-0.9-3.4-0.8-5.5c0.1-2.1,0.5-4.4,1.1-6.9l7-29.4h26.3L339,43h-26.5
		l6.1-24.8l-24.7,3.8l-15.7,66.1c-1.3,5.4-2,10.6-2.2,15.5c-0.2,4.9,0.5,9.2,2.2,13c1.7,3.8,4.6,6.8,8.6,9c4.1,2.2,9.7,3.3,17.1,3.3
		c5.1,0,9.5-0.4,13.3-1.3C317.7,127.5,318.2,127.4,318.7,127.2z"/>
</g>
<g id="Layer_2">
</g>
</svg>
