<?xml version="1.0" encoding="utf-8"?>
<!-- Generator: Adobe Illustrator 18.1.1, SVG Export Plug-In . SVG Version: 6.00 Build 0)  -->
<!DOCTYPE svg PUBLIC "-//W3C//DTD SVG 1.1//EN" "http://www.w3.org/Graphics/SVG/1.1/DTD/svg11.dtd">
<svg version="1.1" id="Layer_1" xmlns="http://www.w3.org/2000/svg" xmlns:xlink="http://www.w3.org/1999/xlink" x="0px" y="0px"
	 viewBox="0 0 800 800" enable-background="new 0 0 800 800" xml:space="preserve">
<g id="Bitcoin_Logo_2_">
	<linearGradient id="PMS_130_Coin_2_" gradientUnits="userSpaceOnUse" x1="15.1111" y1="400.8547" x2="784.6896" y2="400.8547">
		<stop  offset="0" style="stop-color:#F8A847"/>
		<stop  offset="1" style="stop-color:#F7961F"/>
	</linearGradient>
	<path id="PMS_130_Coin_1_" fill="url(#PMS_130_Coin_2_)" d="M773.2,493.6c-51.3,205.9-259.9,331.6-466.4,280.2
		C100.9,722.6-24.7,514,26.6,308.1S286.5-23.5,492.4,27.8C698.9,78.6,824.6,287.7,773.2,493.6z"/>
	<path id="Bitcoin_Symbol_1_" fill="#FFFFFF" d="M582.3,350.8c7-51.3-32.1-78.1-85.6-96.3l16.6-69.5L471,174.9l-16,67.9
		c-11.2-2.7-22.5-5.3-33.7-7.5l16-67.9l-42.8-10.2L378,226.8c-9.1-2.1-18.2-3.7-27.3-5.9l0,0L292.4,207l-10.7,44.9
		c0,0,31.6,7,30.5,7.5c17.1,4.3,20.3,15.5,19.8,24.1l-18.7,79.2c1.1,0.5,2.7,0.5,4.3,1.6c-1.6-0.5-2.7-0.5-4.3-1.1l-25.7,110.7
		c-2.1,5.3-7.5,12.8-19.3,10.2c0.5,0.5-31-7.5-31-7.5L217,525.2l55.1,12.8c10.2,2.7,20.3,4.8,30,7.5l-16.6,70.1l42.3,10.2l16.6-69.5
		c11.8,3.2,23,5.9,33.7,8.6l-16.6,69l42.3,10.2l16.6-70.1c72.2,12.8,126.2,7,148.1-58.8c17.6-52.4-1.6-82.4-40.1-102.2
		C556.6,406.5,576.9,388.3,582.3,350.8z M487.1,487.2c-12.3,52.4-101.1,25.1-129.4,18.2l21.9-93.1
		C408.5,419.3,499.9,432.1,487.1,487.2z M498.8,350.8c-11.2,47.6-85,24.6-109.1,18.7l20.3-84.5C433.6,290.9,510.6,301.1,498.8,350.8
		z"/>
</g>
</svg>
